# xmcd
# 
# Track frame offsets:
#     150
#     17903
#     39082
#     63765
#     82719
#     101806
#     118927
#     146680
#     169162
#     182696
#     200015
# 
# Disc length: 3152
# 
# Revision: 1
# Processed by: cddbd v1.5.2PL0 Copyright (c) Steve Scherf et al.
# Submitted via: fre:ac v1.0.31
# 
DISCID=8f0c4e0b
DTITLE=Neil Young - Tuscaloosa
DYEAR=2019
DGENRE=Rock/Pop
TTITLE0=Here We Are In The Years
TTITLE1=After The Gold Rush
TTITLE2=Out On The Weekend
TTITLE3=Harvest
TTITLE4=Old Man
TTITLE5=Heart Of Gold
TTITLE6=Time Fades Away
TTITLE7=Lookout Joe
TTITLE8=New Mama
TTITLE9=Alabama
TTITLE10=Don't Be Denied
EXTD=
EXTT0=
EXTT1=
EXTT2=
EXTT3=
EXTT4=
EXTT5=
EXTT6=
EXTT7=
EXTT8=
EXTT9=
EXTT10=
PLAYORDER=
